<?xml version="1.0" encoding="utf-8"?><svg version="1.1" id="Layer_1" xmlns="http://www.w3.org/2000/svg" xmlns:xlink="http://www.w3.org/1999/xlink" x="0px" y="0px" viewBox="0 0 122.88 122.88" style="enable-background:new 0 0 122.88 122.88" xml:space="preserve"><g><path d="M109.72,61.44v-0.01h0.03c0-13.31-5.42-25.38-14.17-34.13c-8.75-8.74-20.81-14.16-34.1-14.16v0.02l-0.04,0v-0.02 c-13.3,0-25.38,5.42-34.13,14.17c-8.74,8.75-14.16,20.81-14.16,34.11h0.03v0.04h-0.03c0,8.88,2.41,17.22,6.59,24.36 c8.38,14.31,23.92,23.92,41.68,23.93v-0.02l0.04,0v0.02c13.31,0,25.38-5.42,34.13-14.17c1.44-1.44,2.78-2.95,4-4.52 C105.93,82.88,109.72,72.6,109.72,61.44L109.72,61.44z M61.44,27.39L27.51,62.67l21.84,0v32.81l24.17,0V62.68h21.84L61.44,27.39 L61.44,27.39L61.44,27.39z M122.85,61.43h0.03v0.01c0,14.19-4.82,27.27-12.92,37.68c-1.59,2.04-3.29,3.97-5.08,5.76 c-11.1,11.1-26.45,17.97-43.43,17.98v0.03l-0.04,0v-0.03c-22.59-0.01-42.34-12.22-52.99-30.4c-5.33-9.1-8.39-19.7-8.39-31H0v-0.04 h0.03C0.03,44.44,6.9,29.09,18,18C29.09,6.9,44.45,0.03,61.43,0.03V0l0.04,0v0.03c16.97,0.01,32.32,6.87,43.41,17.97 C115.98,29.09,122.85,44.45,122.85,61.43L122.85,61.43z"/></g></svg>